<svg viewBox="0 0 28 28" fill="none" xmlns="http://www.w3.org/2000/svg">
  <path
    d="M6.75 13.5007C10.4779 13.5007 13.5 10.4785 13.5 6.75037C13.5 3.02224 10.4779 0 6.75 0C3.02208 0 0 3.02224 0 6.75037C0 10.4785 3.02208 13.5007 6.75 13.5007Z"
    fill="#FF8D3A"
  />
  <path
    d="M21.25 13.5007C24.9779 13.5007 28 10.4785 28 6.75037C28 3.02224 24.9779 0 21.25 0C17.5221 0 14.5 3.02224 14.5 6.75037C14.5 10.4785 17.5221 13.5007 21.25 13.5007Z"
    fill="#B2F260"
  />
  <path
    d="M6.75 27.9998C10.4779 27.9998 13.5 24.9775 13.5 21.2494C13.5 17.5213 10.4779 14.499 6.75 14.499C3.02208 14.499 0 17.5213 0 21.2494C0 24.9775 3.02208 27.9998 6.75 27.9998Z"
    fill="#4FE5C1"
  />
  <path
    d="M18.6733 23.2682C18.8041 23.6041 18.9793 23.9209 19.1941 24.21C19.4202 24.0244 19.6875 22.1477 19.7697 21.5015C20.0918 19.2467 20.3865 17.1225 22.0243 17.1225C23.7649 17.1225 24.0801 19.1848 24.2652 20.7522C24.3212 21.2498 24.4081 21.7434 24.5256 22.2302C24.5667 22.1408 24.6215 22.0377 24.6763 21.9071C24.8842 21.2499 25.2979 20.6775 25.8559 20.275C26.414 19.8725 27.0866 19.6613 27.7738 19.6729C27.403 18.1468 26.5153 16.7973 25.2625 15.8551C24.0097 14.9128 22.4696 14.4362 20.9054 14.5069C19.3412 14.5775 17.8499 15.1909 16.6866 16.2423C15.5233 17.2936 14.76 18.7176 14.5273 20.271C17.2205 20.0097 18.1251 22.0102 18.6733 23.2682Z"
    fill="#333333"
  />
  <path
    d="M26.1155 22.5256C25.8482 23.1168 25.4302 23.9967 24.3954 23.9486C23.1071 23.8867 22.8947 22.3125 22.7028 20.9307C22.6069 20.2432 22.3944 18.6621 22.0175 18.6621C21.901 18.7446 21.6543 19.3496 21.3322 21.6869C21.0581 23.6461 20.8183 25.3372 19.667 25.6809C19.4984 25.7341 19.3229 25.7619 19.1462 25.7634C18.0909 25.7634 17.618 24.7254 17.2411 23.8867C16.6929 22.6699 16.2063 21.6113 14.5 21.8244C14.6563 23.5618 15.4736 25.1721 16.7823 26.3209C18.091 27.4697 19.7905 28.0686 21.5279 27.9934C23.2653 27.9182 24.907 27.1746 26.1122 25.917C27.3174 24.6595 27.9935 22.9845 28 21.24V21.2057C26.7322 21.1575 26.4718 21.735 26.1155 22.5256Z"
    fill="#333333"
  />
</svg>